<svg xmlns="http://www.w3.org/2000/svg" data-bbox="0 0 123.602 24" data-type="color" viewBox="0 0 40 24">
	<g clip-path="url(#a)">
		<path fill="#f16522" d="M14.375 21.499h10.686V2.651H14.375Z" data-color="2"/>
		<path fill="#e52523" d="M15.063 12c0-3.828 1.82-7.237 4.655-9.434A12.25 12.25 0 0 0 12.187 0C5.457 0 0 5.373 0 12s5.456 12 12.187 12c2.842 0 5.458-.959 7.531-2.566-2.834-2.197-4.655-5.606-4.655-9.434" data-color="3"/>
		<path fill="#f89e1b" d="M39.436 12c0 6.627-5.456 12-12.187 12-2.843 0-5.458-.959-7.531-2.566 2.834-2.197 4.654-5.606 4.654-9.434s-1.82-7.237-4.654-9.434A12.25 12.25 0 0 1 27.249 0c6.73 0 12.187 5.373 12.187 12" data-color="1"/>
	</g>
	<defs fill="none">
		<clipPath id="a">
			<path fill="#fff" d="M124 0v24H0V0z"/>
		</clipPath>
	</defs>
</svg>